<svg xmlns="http://www.w3.org/2000/svg" fill="none" viewBox="0 0 419 343" height="343" width="419">
<path fill="#E10080" d="M406.887 115.118L94.2594 1.3307C85.36 -1.90841 75.8209 1.85424 72.9539 9.73144L56.0107 56.2824L400.865 181.799L417.808 135.248C420.676 127.369 415.78 118.355 406.887 115.118ZM345.916 332.764L390.333 210.728L45.4794 85.2111L1.0618 207.247C-1.80394 215.121 3.08538 224.139 11.9829 227.378L324.61 341.165C333.504 344.402 343.05 340.637 345.916 332.764ZM207.158 236.81L207.108 236.966C207.02 237.242 207.165 237.539 207.438 237.638L209.709 238.465C209.994 238.568 210.309 238.418 210.406 238.131L214.183 227.035L218.972 214.601C219.081 214.318 218.937 214.002 218.652 213.898L216.511 213.119C216.235 213.018 215.929 213.158 215.819 213.431C213.713 218.648 212.083 219.262 210.698 219.783L210.615 219.814C206.404 221.183 198.375 218.65 194.494 217.237C193.551 216.894 192.613 216.552 191.698 216.14C191.442 216.024 191.326 215.724 191.427 215.461C197.193 200.352 200.457 192.14 204.776 182.089C204.887 181.829 205.186 181.7 205.454 181.792C218.432 186.265 223.576 188.933 227.054 192.425C231.872 197.184 230.712 201.562 229.68 204.831C229.592 205.107 229.738 205.403 230.01 205.502L232.172 206.289C232.453 206.391 232.761 206.251 232.863 205.97C233.131 205.226 233.519 204.138 233.972 202.868C235.454 198.714 237.63 192.619 238.559 190.262C238.676 189.965 238.518 189.627 238.213 189.532L237.799 189.404C233.247 187.988 228.891 186.634 218.67 182.914C207.288 178.771 180.457 168.753 173.039 165.8C172.755 165.686 172.443 165.834 172.339 166.122L171.679 167.935C171.585 168.193 171.699 168.479 171.943 168.603L180.529 172.935C180.766 173.055 180.881 173.328 180.801 173.58C177.294 184.674 173.282 195.697 169.307 206.618C160.053 232.043 157.296 238.532 153.657 247.099L153.566 247.313C153.456 247.573 153.161 247.705 152.894 247.616C149.703 246.55 148.463 246.212 145.812 245.49C145.348 245.363 144.84 245.225 144.271 245.069C144 244.994 143.714 245.14 143.618 245.405L142.913 247.341C142.811 247.622 142.956 247.932 143.237 248.034C147.57 249.607 151.891 251.12 156.211 252.632C160.697 254.203 165.183 255.773 169.68 257.41C176.427 259.866 179.705 261.143 183.74 262.716C184.347 262.952 184.97 263.195 185.625 263.45C185.908 263.56 186.226 263.416 186.329 263.131L187.029 261.208C187.126 260.942 187 260.646 186.742 260.53C183.081 258.887 181.839 258.397 178.585 257.113C178.313 257.006 178.027 256.893 177.724 256.773C177.467 256.672 177.329 256.389 177.401 256.123C179.326 249.069 179.558 248.413 189.876 219.707C189.977 219.425 190.293 219.266 190.574 219.368L193.22 220.331C199.83 222.612 207.416 227.472 208.127 231.569C208.38 232.981 207.963 234.287 207.158 236.81Z" clip-rule="evenodd" fill-rule="evenodd"></path>
</svg>
